<?xml version="1.0" standalone="no"?>
<!DOCTYPE svg PUBLIC "-//W3C//DTD SVG 20010904//EN"
 "http://www.w3.org/TR/2001/REC-SVG-20010904/DTD/svg10.dtd">
<svg version="1.0" xmlns="http://www.w3.org/2000/svg"
 width="512.000000pt" height="512.000000pt" viewBox="0 0 512.000000 512.000000"
 preserveAspectRatio="xMidYMid meet">
<metadata>
Created by potrace 1.14, written by Peter Selinger 2001-2017
</metadata>
<g transform="translate(0.000000,512.000000) scale(0.100000,-0.100000)"
fill="#000000" stroke="none">
<path d="M2345 5109 c-22 -5 -71 -19 -110 -31 -83 -27 -1864 -914 -1948 -970
-219 -148 -219 -408 1 -557 51 -34 1801 -912 1898 -953 194 -80 492 -87 714
-18 69 22 1836 899 1930 958 95 60 149 127 175 215 32 111 0 212 -95 307 -53
53 -110 82 -1001 527 -519 259 -953 474 -964 479 -105 40 -153 46 -355 49
-113 2 -223 -1 -245 -6z"/>
<path d="M475 2952 c-224 -115 -267 -150 -322 -254 -23 -44 -28 -65 -28 -128
0 -123 55 -209 187 -293 68 -44 1780 -899 1874 -937 197 -79 472 -89 701 -25
32 9 487 231 1011 492 898 448 957 479 1011 532 124 122 142 273 49 409 -43
62 -122 117 -300 206 l-155 78 -674 -337 c-371 -185 -705 -349 -744 -365 -88
-36 -195 -67 -260 -75 -27 -4 -69 -10 -91 -14 -99 -18 -382 0 -509 32 -11 3
-33 8 -50 12 -70 18 -226 92 -861 409 -370 185 -676 336 -680 335 -5 0 -76
-35 -159 -77z"/>
<path d="M475 1692 c-82 -43 -171 -92 -197 -110 -198 -137 -206 -382 -18 -531
63 -50 1888 -964 1978 -991 123 -37 211 -48 352 -45 263 6 218 -13 1308 531
900 450 955 479 1010 532 78 77 106 137 107 227 0 81 -13 120 -68 193 -47 64
-105 103 -299 201 l-147 73 -653 -327 c-359 -180 -689 -343 -733 -362 -86 -38
-216 -78 -280 -87 -23 -4 -52 -9 -65 -12 -14 -3 -91 -7 -171 -9 -205 -4 -374
25 -537 92 -46 19 -384 184 -751 368 -368 184 -672 335 -677 334 -5 0 -76 -35
-159 -77z"/>
</g>
</svg>
